<svg width="720" height="96" viewBox="0 0 720 96" fill="none" xmlns="http://www.w3.org/2000/svg">
<path d="M50 42H30" stroke="#605DEC" stroke-width="2" stroke-linecap="round" stroke-linejoin="round"/>
<path d="M46 48H30" stroke="#605DEC" stroke-width="2" stroke-linecap="round" stroke-linejoin="round"/>
<path d="M42 54H30" stroke="#605DEC" stroke-width="2" stroke-linecap="round" stroke-linejoin="round"/>
<path d="M87.6533 37.3051H80V33H100.709V37.3051H93.0556V55.9979C93.0556 56.4952 92.6525 56.8983 92.1552 56.8983C89.6689 56.8983 87.6533 54.8827 87.6533 52.3964V37.3051Z" fill="#605DEC"/>
<path d="M112.375 42.1149C112.454 43.1933 111.662 44.1395 110.587 44.251L109.574 44.3559C108.119 44.4915 107.092 44.8983 106.492 45.5763C105.892 46.2316 105.591 47.113 105.591 48.2203V55.8983C105.591 56.4506 105.144 56.8983 104.591 56.8983H102.362C101.258 56.8983 100.362 56.0029 100.362 54.8983V41.2542C100.362 40.702 100.81 40.2542 101.362 40.2542H104.384C104.936 40.2542 105.384 40.702 105.384 41.2542V43.0678C106.238 41.1469 108.004 40.096 110.682 39.9153C111.525 39.859 112.256 40.4938 112.318 41.3366L112.375 42.1149Z" fill="#605DEC"/>
<path d="M114.262 41.2542C114.262 40.702 114.709 40.2542 115.262 40.2542H118.491C119.043 40.2542 119.491 40.702 119.491 41.2542V55.8983C119.491 56.4506 119.043 56.8983 118.491 56.8983H116.262C115.157 56.8983 114.262 56.0029 114.262 54.8983V41.2542Z" fill="#605DEC"/>
<path d="M134.022 39.8475C135.476 39.8475 136.769 40.2203 137.9 40.9661C139.055 41.6893 139.944 42.7175 140.567 44.0508C141.213 45.3616 141.537 46.8757 141.537 48.5932C141.537 50.3107 141.213 51.8249 140.567 53.1356C139.944 54.4237 139.066 55.4181 137.935 56.1186C136.804 56.8192 135.499 57.1695 134.022 57.1695C132.867 57.1695 131.817 56.9435 130.87 56.4915C129.947 56.017 129.231 55.3616 128.723 54.5254V62.1285C128.723 62.6098 128.333 63 127.852 63C125.445 63 123.494 61.049 123.494 58.6424V41.2542C123.494 40.702 123.942 40.2542 124.494 40.2542H127.654C128.206 40.2542 128.654 40.702 128.654 41.2542V42.5932C129.162 41.7345 129.889 41.0678 130.836 40.5932C131.782 40.096 132.844 39.8475 134.022 39.8475ZM132.498 53.2712C133.722 53.2712 134.668 52.8757 135.338 52.0847C136.007 51.2712 136.342 50.1073 136.342 48.5932C136.342 47.0565 136.007 45.8701 135.338 45.0339C134.668 44.1751 133.722 43.7458 132.498 43.7458C131.274 43.7458 130.328 44.1638 129.658 45C128.989 45.8136 128.654 46.9887 128.654 48.5254C128.654 50.0396 128.989 51.2147 129.658 52.0508C130.328 52.8644 131.274 53.2712 132.498 53.2712Z" fill="#605DEC"/>
<path d="M163.279 39.8475C165.218 39.8475 166.661 40.4237 167.607 41.5763C168.554 42.7288 169.027 44.4915 169.027 46.8644V54.8983C169.027 56.0029 168.132 56.8983 167.027 56.8983H165.798C164.694 56.8983 163.798 56.0029 163.798 54.8983V47.0339C163.798 45.904 163.613 45.0904 163.244 44.5932C162.898 44.096 162.298 43.8475 161.443 43.8475C159.821 43.8475 159.254 45.3635 159.254 47.7119V54.8983C159.254 56.0029 158.358 56.8983 157.254 56.8983H156.025C154.92 56.8983 154.025 56.0029 154.025 54.8983V47.0339C154.025 45.904 153.84 45.0904 153.471 44.5932C153.124 44.096 152.524 43.8475 151.67 43.8475C150.047 43.8475 149.48 45.3635 149.48 47.7119V54.8983C149.48 56.0029 148.585 56.8983 147.48 56.8983H146.251C145.147 56.8983 144.251 56.0029 144.251 54.8983V43.2542C144.251 41.5974 145.594 40.2542 147.251 40.2542H148.342C148.894 40.2542 149.342 40.702 149.342 41.2542V42.4915C150.486 40.6406 151.001 39.8475 153.575 39.8475C156.091 39.8475 157.776 40.8757 158.631 42.9322C159.809 40.9139 160.546 39.8475 163.279 39.8475Z" fill="#605DEC"/>
<path d="M179.554 39.8475C182.094 39.8475 183.964 40.435 185.165 41.6102C186.388 42.7853 187 44.6045 187 47.0678V54.3734C187 56.0302 185.657 57.3734 184 57.3734H182.048V54.4237C181.702 55.2825 181.124 55.9605 180.316 56.4576C179.508 56.9322 178.562 57.1695 177.477 57.1695C176.322 57.1695 175.272 56.9435 174.325 56.4915C173.402 56.0396 172.663 55.4068 172.109 54.5932C171.578 53.7797 171.312 52.8757 171.312 51.8814C171.312 50.661 171.624 49.7006 172.248 49C172.894 48.2994 173.921 47.791 175.33 47.4746C176.738 47.1582 178.666 47 181.113 47H182.013V46.3898C182.013 45.3955 181.794 44.6949 181.355 44.2881C180.917 43.8814 180.155 43.678 179.07 43.678C178.239 43.678 177.315 43.8249 176.299 44.1186C175.962 44.2161 175.63 44.3261 175.303 44.4484C174.254 44.8411 173.018 44.4193 172.598 43.381C172.256 42.5362 172.575 41.5573 173.413 41.1985C174.064 40.9197 174.784 40.6727 175.572 40.4576C177.003 40.0508 178.331 39.8475 179.554 39.8475ZM178.619 53.6441C179.635 53.6441 180.455 53.3164 181.078 52.661C181.702 51.9831 182.013 51.113 182.013 50.0508V49.4746H181.425C179.554 49.4746 178.239 49.6215 177.477 49.9153C176.738 50.209 176.369 50.7401 176.369 51.5085C176.369 52.1186 176.576 52.6271 176.992 53.0339C177.431 53.4407 177.973 53.6441 178.619 53.6441Z" fill="#605DEC"/>
<path d="M119.5 36C119.5 37.3807 118.381 38.5 117 38.5C115.619 38.5 114.5 37.3807 114.5 36C114.5 34.6193 115.619 33.5 117 33.5C118.381 33.5 119.5 34.6193 119.5 36Z" fill="#605DEC"/>
</svg>
