<svg width="1422" height="860" viewBox="0 0 1422 860" fill="none" xmlns="http://www.w3.org/2000/svg">
<path d="M126.613 1162.83L126.638 1162.82L126.66 1162.8L186.209 1121.25C194.179 1115.69 201.3 1109.01 207.35 1101.4L231.101 1071.54C232.58 1069.69 233.384 1067.38 233.384 1065.01V999V447.025C233.384 435.724 234.339 424.457 236.304 413.329C243.028 375.253 260.171 280.485 275.487 215.114C285.738 171.36 298.608 117.634 313.099 74.8479C320.345 53.4519 327.988 34.8196 335.898 21.545C339.854 14.9071 343.863 9.63231 347.903 6.02229C351.944 2.41212 355.979 0.5 360 0.5C364.02 0.5 368.078 2.42713 372.159 6.06369C376.238 9.69963 380.3 15.0101 384.314 21.6873C392.341 35.0403 400.124 53.7665 407.464 75.2243C422.142 118.133 435.012 171.86 444.512 215.107C458.808 280.194 476.31 373.914 483.407 412.488C485.559 424.187 486.616 436.029 486.616 447.926V999V1065.01C486.616 1067.38 487.42 1069.69 488.899 1071.54L512.651 1101.4C518.7 1109.01 525.821 1115.69 533.79 1121.25L593.34 1162.8L593.362 1162.82L593.387 1162.83L1375.93 1589.42C1375.94 1589.42 1375.94 1589.43 1375.95 1589.43C1393.58 1600.66 1426.5 1639.11 1420.86 1704.68C1420.61 1707.59 1417.88 1709.48 1415.15 1708.57C1355.1 1688.65 925.956 1556.53 697.467 1486.38C687.911 1483.44 678.127 1482 668.133 1482H490H489.5V1482.5V1986.5C489.5 2077.57 460.122 2213.45 455.205 2235.56C454.736 2237.66 454.239 2239.68 453.688 2241.77L437.716 2302.37L437.625 2302.72L437.922 2302.92L807.401 2548.86C808.742 2550.89 810.468 2555.62 811.175 2563.26C811.882 2570.88 811.571 2581.37 808.876 2594.88L391.156 2481.02L390.67 2480.89L390.541 2481.37L387.017 2494.74L387.016 2494.75L387.016 2494.75L387.011 2494.77L386.99 2494.84C386.971 2494.91 386.943 2495.01 386.905 2495.14C386.83 2495.4 386.717 2495.79 386.567 2496.28C386.267 2497.26 385.819 2498.67 385.225 2500.35C384.037 2503.73 382.27 2508.22 379.954 2512.71C377.637 2517.2 374.781 2521.67 371.424 2525C368.067 2528.34 364.251 2530.5 360 2530.5C355.749 2530.5 351.933 2528.34 348.576 2525C345.219 2521.67 342.363 2517.2 340.046 2512.71C337.73 2508.22 335.963 2503.73 334.775 2500.35C334.181 2498.67 333.733 2497.26 333.433 2496.28C333.283 2495.79 333.17 2495.4 333.095 2495.14C333.057 2495.01 333.029 2494.91 333.01 2494.84L332.989 2494.77L332.984 2494.75L332.984 2494.75L332.983 2494.75L329.459 2481.37L329.33 2480.89L328.844 2481.02L-90.3546 2594.88C-93.0491 2581.37 -93.3605 2570.88 -92.6539 2563.26C-91.946 2555.62 -90.2203 2550.89 -88.8796 2548.86L282.077 2302.92L282.376 2302.72L282.284 2302.37L266.312 2241.77C265.761 2239.68 265.264 2237.66 264.795 2235.56C259.878 2213.45 230.5 2077.57 230.5 1986.5V1482.5V1482H230H51.8702C41.8737 1482 32.0883 1483.44 22.5305 1486.38C-205.958 1556.53 -635.097 1688.65 -695.151 1708.57C-697.884 1709.48 -700.608 1707.59 -700.858 1704.68C-706.5 1639.11 -673.576 1600.66 -655.947 1589.43C-655.943 1589.43 -655.938 1589.42 -655.934 1589.42L126.613 1162.83Z" fill="url(#paint0_linear_2642_8348)" stroke="#BCBAF7"/>
<defs>
<linearGradient id="paint0_linear_2642_8348" x1="-702" y1="1127" x2="1422" y2="1127" gradientUnits="userSpaceOnUse">
<stop stop-color="#99BBFF"/>
<stop offset="0.489583" stop-color="#CCCCFF"/>
<stop offset="1" stop-color="#99BBFF"/>
</linearGradient>
</defs>
</svg>
